<svg width="33" height="23" viewBox="0 0 33 23" fill="none" xmlns="http://www.w3.org/2000/svg">
<rect x="0.833252" y="1.19629" width="31.0833" height="21" rx="5.5" fill="white" stroke="#D9D9D9"/>
<path d="M13.8396 22.2376L31.9438 16.9668V17.2376C31.9438 19.9991 29.7052 22.2376 26.9438 22.2376H13.8396Z" fill="#FD6020"/>
<path fill-rule="evenodd" clip-rule="evenodd" d="M28.5075 9.50592C29.5035 9.50592 30.0513 9.94917 30.0513 10.7864C30.1011 11.4267 29.6529 11.9684 29.0553 12.0669L30.3999 13.8891H29.3541L28.2087 12.1162H28.1091V13.8891H27.2625V9.50592H28.5075ZM28.1091 11.5251H28.3581C28.9059 11.5251 29.1549 11.2789 29.1549 10.8357C29.1549 10.4417 28.9059 10.1954 28.3581 10.1954H28.1091V11.5251ZM24.3242 13.8891H26.7146V13.1504H25.1708V11.9684H26.6648V11.2296H25.1708V10.2447H26.7146V9.50591H24.3242V13.8891ZM21.8341 12.4609L20.6886 9.50591H19.7922L21.6349 13.9876H22.0831L23.9257 9.50591H23.0293L21.8341 12.4609ZM11.7246 11.7221C11.7246 12.9534 12.7206 13.9876 13.9656 13.9876C14.364 13.9876 14.7126 13.8891 15.0612 13.7414V12.7564C14.8122 13.0519 14.4636 13.2489 14.0652 13.2489C13.2684 13.2489 12.621 12.6579 12.621 11.8699V11.7714C12.5712 10.9834 13.2186 10.2939 14.0154 10.2446C14.4138 10.2446 14.8122 10.4416 15.0612 10.7371V9.75215C14.7624 9.55515 14.364 9.5059 14.0154 9.5059C12.7206 9.4074 11.7246 10.4416 11.7246 11.7221ZM10.1808 11.1804C9.68276 10.9834 9.53336 10.8849 9.53336 10.6387C9.58316 10.3432 9.83216 10.0969 10.131 10.1462C10.38 10.1462 10.629 10.2939 10.8282 10.4909L11.2764 9.8999C10.9278 9.60441 10.4796 9.40741 10.0314 9.40741C9.33416 9.35816 8.73655 9.8999 8.68675 10.5894V10.6387C8.68675 11.2296 8.93575 11.5744 9.73256 11.8206C9.93176 11.8699 10.131 11.9684 10.3302 12.0669C10.4796 12.1654 10.5792 12.3131 10.5792 12.5101C10.5792 12.8549 10.2804 13.1504 9.98156 13.1504H9.93176C9.53336 13.1504 9.18476 12.9041 9.03535 12.5594L8.48755 13.1011C8.78635 13.6429 9.38396 13.9384 9.98156 13.9384C10.7784 13.9876 11.4258 13.3966 11.4756 12.6086V12.4609C11.4258 11.8699 11.1768 11.5744 10.1808 11.1804ZM7.29248 13.8891H8.13909V9.50591H7.29248V13.8891ZM3.35815 9.50592H4.60317H4.85217C6.04738 9.55517 6.99359 10.5402 6.94379 11.7222C6.94379 12.3624 6.64499 12.9534 6.14698 13.3966C5.69878 13.7414 5.15097 13.9384 4.60317 13.8891H3.35815V9.50592ZM4.45384 13.1504C4.85224 13.1996 5.30044 13.0519 5.59925 12.8057C5.89805 12.5102 6.04745 12.1162 6.04745 11.6729C6.04745 11.2789 5.89805 10.8849 5.59925 10.5894C5.30044 10.3432 4.85224 10.1954 4.45384 10.2447H4.20483V13.1504H4.45384Z" fill="black"/>
<path fill-rule="evenodd" clip-rule="evenodd" d="M17.6011 9.4043C16.3561 9.4043 15.3103 10.3893 15.3103 11.6698C15.3103 12.901 16.3063 13.9353 17.6011 13.9845C18.8959 14.0338 19.8919 12.9995 19.9417 11.719C19.8919 10.4385 18.8959 9.4043 17.6011 9.4043V9.4043Z" fill="#FD6020"/>
</svg>
