<svg width="33" height="23" viewBox="0 0 33 23" fill="none" xmlns="http://www.w3.org/2000/svg">
<rect x="0.75" y="1.19629" width="31.0833" height="21" rx="5.5" fill="white" stroke="#D9D9D9"/>
<path d="M17.708 18.5711C21.2807 18.5884 24.5417 15.6307 24.5417 12.0326C24.5417 8.09825 21.2807 5.37841 17.708 5.37988H14.6332C11.0178 5.37841 8.04175 8.09898 8.04175 12.0326C8.04175 15.6314 11.0178 18.5884 14.6332 18.5711H17.708Z" fill="#0079BE"/>
<path d="M14.648 5.9248C11.344 5.92591 8.66712 8.62812 8.66602 11.9633C8.66712 15.2981 11.344 18.0003 14.648 18.0014C17.9523 18.0003 20.6303 15.2981 20.6306 11.9633C20.6303 8.62812 17.9527 5.92591 14.648 5.9248ZM10.8564 11.9633C10.8557 11.1922 11.0877 10.4388 11.522 9.80157C11.9562 9.16437 12.5726 8.67299 13.2906 8.39167V15.5345C12.5726 15.2534 11.9561 14.7621 11.5218 14.125C11.0875 13.4878 10.8556 12.7344 10.8564 11.9633ZM16.0049 15.536V8.3913C16.7234 8.67222 17.3404 9.16356 17.775 9.80097C18.2096 10.4384 18.4416 11.1922 18.4406 11.9637C18.4414 12.7351 18.2094 13.4888 17.7748 14.1262C17.3402 14.7636 16.7234 15.255 16.0049 15.536Z" fill="white"/>
<path d="M17.708 18.5711C21.2807 18.5884 24.5417 15.6307 24.5417 12.0326C24.5417 8.09825 21.2807 5.37841 17.708 5.37988H14.6332C11.0178 5.37841 8.04175 8.09898 8.04175 12.0326C8.04175 15.6314 11.0178 18.5884 14.6332 18.5711H17.708Z" fill="#0079BE"/>
<path d="M14.648 5.9248C11.344 5.92591 8.66712 8.62812 8.66602 11.9633C8.66712 15.2981 11.344 18.0003 14.648 18.0014C17.9523 18.0003 20.6303 15.2981 20.6306 11.9633C20.6303 8.62812 17.9527 5.92591 14.648 5.9248ZM10.8564 11.9633C10.8557 11.1922 11.0877 10.4388 11.522 9.80157C11.9562 9.16437 12.5726 8.67299 13.2906 8.39167V15.5345C12.5726 15.2534 11.9561 14.7621 11.5218 14.125C11.0875 13.4878 10.8556 12.7344 10.8564 11.9633ZM16.0049 15.536V8.3913C16.7234 8.67222 17.3404 9.16356 17.775 9.80097C18.2096 10.4384 18.4416 11.1922 18.4406 11.9637C18.4414 12.7351 18.2094 13.4888 17.7748 14.1262C17.3402 14.7636 16.7234 15.255 16.0049 15.536Z" fill="white"/>
</svg>
