<svg width="33" height="23" viewBox="0 0 33 23" fill="none" xmlns="http://www.w3.org/2000/svg">
<rect x="0.916626" y="1.19629" width="31.0833" height="21" rx="5.5" fill="#1F72CD" stroke="#D9D9D9"/>
<path fill-rule="evenodd" clip-rule="evenodd" d="M6.16841 8.48828L3.16663 15.1311H6.76018L7.20568 14.072H8.22398L8.66948 15.1311H12.625V14.3228L12.9774 15.1311H15.0235L15.376 14.3057V15.1311H23.6023L24.6026 14.0995L25.5392 15.1311L29.7645 15.1397L26.7532 11.8283L29.7645 8.48828H25.6048L24.6311 9.50086L23.7239 8.48828H14.7747L14.0063 10.2029L13.2198 8.48828H9.63371V9.26915L9.23479 8.48828H6.16841ZM18.4528 9.43158H23.1767L24.6216 10.9923L26.113 9.43158H27.5578L25.3625 11.8273L27.5578 14.1954H26.0474L24.6026 12.6166L23.1036 14.1954H18.4528V9.43158ZM19.6193 11.2887V10.4185V10.4177H22.5669L23.853 11.8093L22.5099 13.2085H19.6193V12.2585H22.1964V11.2887H19.6193ZM6.86373 9.43158H8.61539L10.6065 13.9361V9.43158H12.5254L14.0632 12.6613L15.4806 9.43158H17.3899V14.1983H16.2281L16.2186 10.4631L14.5249 14.1983H13.4856L11.7824 10.4631V14.1983H9.39241L8.93931 13.1296H6.49137L6.03921 14.1973H4.75867L6.86373 9.43158ZM6.9093 12.1417L7.7158 10.2381L8.52136 12.1417H6.9093Z" fill="white"/>
</svg>
