<svg width="33" height="23" viewBox="0 0 33 23" fill="none" xmlns="http://www.w3.org/2000/svg">
<rect x="0.5" y="1.19629" width="31.0833" height="21" rx="5.5" fill="white" stroke="#D9D9D9"/>
<path fill-rule="evenodd" clip-rule="evenodd" d="M16.2707 16.4232C15.1785 17.3657 13.7616 17.9348 12.2134 17.9348C8.75877 17.9348 5.95825 15.1017 5.95825 11.607C5.95825 8.11232 8.75877 5.2793 12.2134 5.2793C13.7616 5.2793 15.1785 5.84832 16.2707 6.79091C17.363 5.84832 18.7799 5.2793 20.3281 5.2793C23.7827 5.2793 26.5832 8.11232 26.5832 11.607C26.5832 15.1017 23.7827 17.9348 20.3281 17.9348C18.7799 17.9348 17.363 17.3657 16.2707 16.4232Z" fill="#ED0006"/>
<path fill-rule="evenodd" clip-rule="evenodd" d="M16.2708 16.4232C17.6157 15.2625 18.4685 13.5355 18.4685 11.607C18.4685 9.67853 17.6157 7.95153 16.2708 6.79091C17.363 5.84832 18.7799 5.2793 20.3281 5.2793C23.7827 5.2793 26.5832 8.11232 26.5832 11.607C26.5832 15.1017 23.7827 17.9348 20.3281 17.9348C18.7799 17.9348 17.363 17.3657 16.2708 16.4232Z" fill="#F9A000"/>
<path fill-rule="evenodd" clip-rule="evenodd" d="M16.2707 16.4233C17.6157 15.2626 18.4685 13.5356 18.4685 11.6071C18.4685 9.67864 17.6157 7.95164 16.2707 6.79102C14.9258 7.95164 14.073 9.67864 14.073 11.6071C14.073 13.5356 14.9258 15.2626 16.2707 16.4233Z" fill="#FF5E00"/>
</svg>
