<svg width="33" height="23" viewBox="0 0 33 23" fill="none" xmlns="http://www.w3.org/2000/svg">
<rect x="0.666626" y="1.19629" width="31.0833" height="21" rx="5.5" fill="white" stroke="#D9D9D9"/>
<path d="M10.092 5.28027H15.1481C15.8539 5.28027 16.2929 5.85555 16.1282 6.56368L13.7742 16.6703C13.6081 17.3759 12.9015 17.9517 12.1952 17.9517H7.13954C6.43473 17.9517 5.99477 17.3759 6.15942 16.6703L8.51439 6.56368C8.67904 5.85555 9.38532 5.28027 10.092 5.28027Z" fill="#E21836"/>
<path d="M14.7272 5.2793H20.5416C21.2472 5.2793 20.929 5.85458 20.763 6.56271L18.4094 16.6693C18.2443 17.375 18.2958 17.9507 17.5886 17.9507H11.7742C11.0671 17.9507 10.6295 17.375 10.7956 16.6693L13.1491 6.56271C13.3162 5.85458 14.021 5.2793 14.7272 5.2793Z" fill="#00447C"/>
<path d="M20.3109 5.2793H25.367C26.0738 5.2793 26.5128 5.85458 26.3468 6.56271L23.9932 16.6693C23.827 17.375 23.1199 17.9507 22.4132 17.9507H17.3595C16.6523 17.9507 16.2137 17.375 16.3793 16.6693L18.7333 6.56271C18.898 5.85458 19.6038 5.2793 20.3109 5.2793Z" fill="#007B84"/>
<path d="M11.4121 8.51784C10.8922 8.52314 10.7386 8.51784 10.6896 8.50626C10.6707 8.59586 10.3198 10.2144 10.3189 10.2157C10.2433 10.5432 10.1883 10.7766 10.0016 10.9273C9.89565 11.0149 9.77192 11.0572 9.62847 11.0572C9.39789 11.0572 9.26356 10.9427 9.241 10.7255L9.23669 10.651C9.23669 10.651 9.30694 10.2124 9.30694 10.2099C9.30694 10.2099 9.67517 8.73499 9.74111 8.54003C9.74456 8.52894 9.74554 8.52314 9.74641 8.51784C9.02965 8.52413 8.90259 8.51784 8.89384 8.50626C8.88903 8.52216 8.87129 8.6136 8.87129 8.6136L8.49528 10.276L8.46299 10.417L8.40051 10.8781C8.40051 11.0149 8.42738 11.1266 8.48086 11.221C8.65217 11.5203 9.14081 11.5652 9.41723 11.5652C9.7734 11.5652 10.1075 11.4895 10.3333 11.3514C10.7252 11.1198 10.8277 10.7578 10.9191 10.4362L10.9615 10.2712C10.9615 10.2712 11.3409 8.73931 11.4053 8.54003C11.4078 8.52894 11.4088 8.52314 11.4121 8.51784ZM12.7028 9.75361C12.6113 9.75361 12.4442 9.77579 12.2941 9.84937C12.2396 9.87734 12.1881 9.90963 12.1338 9.9418L12.1828 9.7647L12.1559 9.73488C11.8376 9.79933 11.7664 9.80796 11.4723 9.84937L11.4477 9.86576C11.4135 10.1488 11.3832 10.3617 11.2567 10.9181C11.2085 11.1232 11.1584 11.3302 11.1083 11.5348L11.1218 11.5608C11.4232 11.5449 11.5146 11.5449 11.7765 11.5492L11.7977 11.5262C11.831 11.3557 11.8353 11.3158 11.909 10.9706C11.9436 10.8069 12.0158 10.4473 12.0514 10.3193C12.1169 10.289 12.1814 10.2591 12.2431 10.2591C12.3898 10.2591 12.372 10.3872 12.3663 10.4382C12.36 10.5239 12.3065 10.8036 12.2517 11.0438L12.2151 11.1988C12.1896 11.3133 12.1616 11.4246 12.1361 11.5381L12.1472 11.5608C12.4442 11.5449 12.5348 11.5449 12.7884 11.5492L12.8182 11.5262C12.8641 11.26 12.8775 11.1887 12.9588 10.8011L12.9998 10.6231C13.0792 10.2745 13.1192 10.0978 13.059 9.95388C12.9954 9.79256 12.8429 9.75361 12.7028 9.75361ZM14.1445 10.1185C13.9867 10.1488 13.886 10.169 13.7859 10.1821C13.6867 10.198 13.59 10.2124 13.4374 10.2336L13.4253 10.2446L13.4142 10.2533C13.3983 10.367 13.3872 10.4652 13.3662 10.5807C13.3483 10.7001 13.3208 10.8358 13.2761 11.0307C13.2415 11.18 13.2236 11.232 13.2039 11.2845C13.1846 11.337 13.1634 11.388 13.1245 11.5348L13.1336 11.5483L13.1413 11.5608C13.2838 11.554 13.3771 11.5492 13.473 11.5483C13.5688 11.5449 13.668 11.5483 13.8215 11.5492L13.835 11.5382L13.8494 11.5261C13.8716 11.3938 13.8749 11.3582 13.8885 11.2936C13.9019 11.2243 13.9251 11.1285 13.9819 10.8724C14.0087 10.7521 14.0387 10.6322 14.0665 10.5094C14.0955 10.3872 14.1258 10.2668 14.1547 10.1465L14.1503 10.1319L14.1445 10.1185ZM14.1479 9.62652C14.0045 9.54185 13.7527 9.56872 13.5832 9.68567C13.4143 9.80028 13.395 9.96296 13.538 10.0487C13.679 10.1311 13.9318 10.1065 14.0997 9.98859C14.2683 9.87151 14.2894 9.71032 14.1479 9.62652ZM15.0155 11.5873C15.3057 11.5873 15.6032 11.5073 15.8271 11.27C15.9994 11.0775 16.0784 10.7911 16.1057 10.6731C16.1949 10.2822 16.1255 10.0997 16.0383 9.98853C15.906 9.81908 15.6721 9.76473 15.4294 9.76473C15.2835 9.76473 14.936 9.77915 14.6645 10.0294C14.4695 10.21 14.3794 10.455 14.3251 10.6899C14.2702 10.9292 14.2071 11.3601 14.6033 11.5204C14.7256 11.5729 14.9018 11.5873 15.0155 11.5873ZM14.9928 10.7078C15.0597 10.4117 15.1387 10.1633 15.3403 10.1633C15.4983 10.1633 15.5098 10.3481 15.4395 10.6451C15.4269 10.7111 15.3693 10.9562 15.2913 11.0606C15.2368 11.1376 15.1723 11.1843 15.1011 11.1843C15.0799 11.1843 14.9538 11.1843 14.9519 10.9971C14.9509 10.9047 14.9697 10.8103 14.9928 10.7078ZM16.8313 11.5492L16.8539 11.5262C16.8861 11.3558 16.8914 11.3157 16.9626 10.9706C16.9982 10.807 17.0719 10.4474 17.1066 10.3193C17.1721 10.2889 17.2356 10.2591 17.2992 10.2591C17.445 10.2591 17.4272 10.3871 17.4214 10.4381C17.4161 10.5239 17.3627 10.8035 17.3068 11.0437L17.2722 11.1987C17.2457 11.3134 17.2169 11.4245 17.1914 11.5382L17.2025 11.5608C17.5004 11.5449 17.5876 11.5449 17.8427 11.5492L17.8735 11.5262C17.9182 11.2599 17.9303 11.1886 18.0141 10.8012L18.054 10.623C18.1339 10.2745 18.1743 10.0979 18.1152 9.95391C18.0497 9.79259 17.8962 9.75365 17.758 9.75365C17.6664 9.75365 17.4985 9.77571 17.3492 9.84941C17.2959 9.87738 17.2424 9.90955 17.1899 9.94184L17.2356 9.76474L17.2111 9.73479C16.8929 9.79937 16.8202 9.808 16.5265 9.84941L16.5039 9.8658C16.4683 10.1489 16.4394 10.3616 16.3128 10.9181C16.2646 11.1232 16.2146 11.3302 16.1645 11.5348L16.178 11.5608C16.4798 11.5449 16.5699 11.5449 16.8313 11.5492ZM19.0207 11.5608C19.0394 11.4693 19.1507 10.9273 19.1517 10.9273C19.1517 10.9273 19.2464 10.5296 19.2522 10.5152C19.2522 10.5152 19.2821 10.4738 19.3119 10.4574H19.3557C19.7697 10.4574 20.2372 10.4574 20.6035 10.1879C20.8529 10.003 21.0233 9.73005 21.0993 9.39829C21.1191 9.31695 21.1336 9.22021 21.1336 9.12347C21.1336 8.99641 21.1081 8.8707 21.0344 8.77248C20.8476 8.51109 20.4755 8.50629 20.046 8.50431C20.0447 8.50431 19.8343 8.50629 19.8343 8.50629C19.2845 8.51306 19.064 8.51109 18.9735 8.5C18.9658 8.54005 18.9514 8.61128 18.9514 8.61128C18.9514 8.61128 18.7545 9.52399 18.7545 9.52547C18.7545 9.52547 18.2832 11.466 18.261 11.5574C18.741 11.5516 18.9378 11.5516 19.0207 11.5608ZM19.3856 9.93943C19.3856 9.93943 19.595 9.02857 19.594 9.03202L19.6007 8.98532L19.6037 8.9497L19.6874 8.95833C19.6874 8.95833 20.1192 8.99542 20.1293 8.99641C20.2998 9.06234 20.37 9.23229 20.321 9.45412C20.2762 9.65684 20.1447 9.82728 19.9758 9.90961C19.8366 9.97936 19.6662 9.98515 19.4906 9.98515H19.3769L19.3856 9.93943ZM20.6892 10.7246C20.6339 10.9605 20.5703 11.3913 20.9646 11.5449C21.0903 11.5984 21.2029 11.6143 21.3174 11.6085C21.4383 11.602 21.5503 11.5413 21.6541 11.4541C21.6447 11.4899 21.6353 11.5258 21.626 11.5618L21.6439 11.5848C21.9274 11.5729 22.0154 11.5729 22.3227 11.5752L22.3505 11.554C22.3954 11.2903 22.4376 11.0342 22.5542 10.5297C22.611 10.288 22.6677 10.0487 22.726 9.80797L22.7169 9.78148C22.3997 9.84026 22.3149 9.85283 22.0097 9.89609L21.9866 9.91494C21.9835 9.93947 21.9803 9.96301 21.9773 9.98655C21.9299 9.90989 21.8611 9.84445 21.755 9.80366C21.6193 9.7503 21.3006 9.81906 21.0267 10.0685C20.8342 10.2466 20.7417 10.4906 20.6892 10.7246ZM21.3555 10.739C21.4234 10.4483 21.5014 10.2023 21.7035 10.2023C21.8313 10.2023 21.8986 10.3203 21.8849 10.5214C21.8741 10.5716 21.8624 10.6244 21.8484 10.6842C21.8282 10.7706 21.8063 10.8562 21.785 10.942C21.7633 11.0007 21.738 11.056 21.7103 11.0929C21.6583 11.1666 21.5345 11.2123 21.4633 11.2123C21.4431 11.2123 21.3184 11.2123 21.3141 11.0284C21.3131 10.9368 21.3319 10.8426 21.3555 10.739ZM24.8346 9.77912L24.81 9.75115C24.4962 9.81474 24.4393 9.82484 24.151 9.86379L24.1298 9.88498C24.1288 9.88844 24.1279 9.89373 24.1264 9.89854L24.1255 9.89373C23.9108 10.389 23.9171 10.2822 23.7423 10.6721C23.7413 10.6544 23.7413 10.6433 23.7403 10.6244L23.6966 9.77912L23.6691 9.75115C23.3403 9.81474 23.3325 9.82484 23.0289 9.86379L23.0052 9.88498C23.0019 9.89509 23.0019 9.90618 22.9999 9.91826L23.0019 9.92257C23.0398 10.1166 23.0307 10.0733 23.0688 10.3794C23.0865 10.5296 23.1102 10.6807 23.128 10.8291C23.1579 11.0774 23.1747 11.1997 23.2113 11.5787C23.0062 11.9171 22.9576 12.0451 22.7602 12.3421L22.7616 12.3451L22.6226 12.5649C22.6067 12.5881 22.5922 12.604 22.572 12.6108C22.5498 12.6218 22.521 12.6237 22.481 12.6237H22.4039L22.2894 13.0045L22.6822 13.0113C22.9128 13.0103 23.0577 12.9025 23.1357 12.7576L23.3827 12.3344H23.3787L23.4048 12.3045C23.5709 11.9469 24.8346 9.77912 24.8346 9.77912ZM20.6892 14.7805H20.5226L21.1393 12.7407H21.3439L21.4088 12.5306L21.4151 12.7643C21.4075 12.9087 21.5211 13.0368 21.8196 13.0156H22.1648L22.2836 12.6228H22.1537C22.079 12.6228 22.0444 12.6039 22.0487 12.5635L22.0424 12.3258H21.4032V12.327C21.1965 12.3313 20.5793 12.3469 20.4543 12.3801C20.3031 12.4191 20.1438 12.5337 20.1438 12.5337L20.2064 12.3233H19.6084L19.4838 12.7407L18.8589 14.8116H18.7376L18.6187 15.2016H19.8097L19.7697 15.3316H20.3566L20.3956 15.2016H20.5602L20.6892 14.7805ZM20.2006 13.1552C20.1048 13.1817 19.9266 13.262 19.9266 13.262L20.0851 12.7407H20.5602L20.4456 13.1206C20.4456 13.1206 20.2988 13.1292 20.2006 13.1552ZM20.2097 13.8999C20.2097 13.8999 20.0605 13.9187 19.9622 13.9408C19.8655 13.9702 19.6841 14.0626 19.6841 14.0626L19.8478 13.5201H20.3253L20.2097 13.8999ZM19.9435 14.7853H19.4669L19.6051 14.3274H20.0802L19.9435 14.7853ZM21.0912 13.5201H21.7781L21.6794 13.8398H20.9834L20.8788 14.1893H21.4879L21.0267 14.8386C20.9944 14.8863 20.9655 14.9032 20.9333 14.9166C20.901 14.933 20.8586 14.9523 20.8096 14.9523H20.6406L20.5245 15.335H20.9665C21.1962 15.335 21.3319 15.2305 21.4321 15.0934L21.7483 14.6606L21.8162 15.1C21.8306 15.1824 21.8898 15.2305 21.9298 15.2493C21.9741 15.2715 22.0198 15.3095 22.0844 15.3152C22.1536 15.3182 22.2037 15.3205 22.2369 15.3205H22.4541L22.5845 14.8921H22.4988C22.4497 14.8921 22.365 14.8839 22.3506 14.8685C22.3361 14.8497 22.3361 14.8209 22.3284 14.777L22.2595 14.3366H21.9774L22.1011 14.1893H22.7958L22.9027 13.8398H22.2595L22.3597 13.5201H23.0009L23.1198 13.1259H21.2081L21.0912 13.5201ZM15.2893 14.8743L15.4496 14.3409H16.1086L16.229 13.9442H15.5694L15.6701 13.6159H16.3147L16.4341 13.2318H14.8214L14.7044 13.6159H15.0708L14.9731 13.9442H14.6057L14.4839 14.3477H14.8502L14.6365 15.0534C14.6077 15.1468 14.6501 15.1824 14.6769 15.2258C14.7044 15.268 14.7323 15.296 14.7949 15.3119C14.8595 15.3263 14.9037 15.335 14.9638 15.335H15.7067L15.8391 14.8955L15.5098 14.9407C15.4462 14.9407 15.2701 14.9331 15.2893 14.8743ZM15.3649 12.3209L15.1979 12.6227C15.1622 12.6887 15.13 12.7296 15.101 12.7484C15.0755 12.7643 15.025 12.771 14.9518 12.771H14.8647L14.7482 13.1571H15.0376C15.1767 13.1571 15.2836 13.1061 15.3346 13.0806C15.3894 13.0512 15.4038 13.068 15.4462 13.0271L15.544 12.9424H16.4476L16.5675 12.5404H15.906L16.0215 12.3209H15.3649ZM16.6989 14.882C16.6835 14.8599 16.6946 14.8208 16.7181 14.7395L16.9651 13.922H17.8437C17.9717 13.9202 18.0641 13.9187 18.1243 13.9144C18.1888 13.9076 18.2591 13.8845 18.3356 13.8431C18.4146 13.7998 18.455 13.754 18.4892 13.7015C18.5273 13.6492 18.5884 13.5345 18.6409 13.3578L18.9513 12.3234L18.0396 12.3287C18.0396 12.3287 17.7589 12.3701 17.6353 12.4158C17.5105 12.4668 17.3323 12.6093 17.3323 12.6093L17.4147 12.3257H16.8515L16.063 14.9407C16.035 15.0423 16.0163 15.116 16.012 15.1602C16.0105 15.2079 16.0721 15.2551 16.112 15.2907C16.1592 15.3263 16.229 15.3205 16.2959 15.3263C16.3663 15.3316 16.4663 15.3349 16.6045 15.3349H17.0373L17.1702 14.8864L16.7827 14.923C16.7413 14.923 16.7113 14.9008 16.6989 14.882ZM17.1244 13.3699H18.0472L17.9886 13.5538C17.9803 13.5581 17.9606 13.5447 17.8667 13.5557H17.0676L17.1244 13.3699ZM17.3093 12.7532H18.2399L18.1729 12.9747C18.1729 12.9747 17.7343 12.9704 17.6641 12.9833C17.355 13.0368 17.1745 13.2019 17.1745 13.2019L17.3093 12.7532ZM18.0092 14.1695C18.0016 14.197 17.9895 14.2138 17.9726 14.2263C17.9539 14.2384 17.9236 14.2427 17.8784 14.2427H17.7469L17.7546 14.0188H17.2077L17.1855 15.1135C17.1846 15.1925 17.1923 15.2382 17.2501 15.2748C17.3079 15.3206 17.486 15.3264 17.7257 15.3264H18.0684L18.1921 14.9166L17.8938 14.933L17.7946 14.9388C17.781 14.933 17.7681 14.9277 17.7536 14.9133C17.7411 14.9008 17.7199 14.9085 17.7233 14.8295L17.7257 14.5488L18.0386 14.5359C18.2075 14.5359 18.2797 14.4809 18.3414 14.4286C18.4002 14.3784 18.4194 14.3207 18.4416 14.2427L18.4941 13.9943H18.0641L18.0092 14.1695Z" fill="#FEFEFE"/>
</svg>
