<svg width="33" height="23" viewBox="0 0 33 23" fill="none" xmlns="http://www.w3.org/2000/svg">
<rect x="0.583374" y="1.19629" width="31.0833" height="21" rx="5.5" fill="white" stroke="#D9D9D9"/>
<path d="M18.5038 11.8131C18.5038 15.3078 15.7033 18.1408 12.2487 18.1408C8.79404 18.1408 5.99353 15.3078 5.99353 11.8131C5.99353 8.31838 8.79404 5.48535 12.2487 5.48535C15.7033 5.48535 18.5038 8.31838 18.5038 11.8131Z" fill="#ED0006"/>
<path d="M26.6185 11.8131C26.6185 15.3078 23.818 18.1408 20.3634 18.1408C16.9088 18.1408 14.1083 15.3078 14.1083 11.8131C14.1083 8.31838 16.9088 5.48535 20.3634 5.48535C23.818 5.48535 26.6185 8.31838 26.6185 11.8131Z" fill="#0099DF"/>
<path fill-rule="evenodd" clip-rule="evenodd" d="M16.306 16.6293C17.651 15.4687 18.5038 13.7417 18.5038 11.8132C18.5038 9.8847 17.651 8.15769 16.306 6.99707C14.9611 8.15769 14.1083 9.8847 14.1083 11.8132C14.1083 13.7417 14.9611 15.4687 16.306 16.6293Z" fill="#6C6BBD"/>
</svg>
