<svg width="35" height="23" viewBox="0 0 35 23" fill="none" xmlns="http://www.w3.org/2000/svg">
<rect x="0.5" y="1.19629" width="34" height="21" rx="5.5" fill="white" stroke="#D9D9D9"/>
<path fill-rule="evenodd" clip-rule="evenodd" d="M10.6253 15.6H8.50494L6.91495 10.0396C6.83949 9.78385 6.67925 9.55773 6.44354 9.45115C5.85531 9.18333 5.20712 8.97018 4.5 8.86268V8.64861H7.91567C8.38708 8.64861 8.74064 8.97018 8.79957 9.34365L9.62454 13.3545L11.7438 8.64861H13.8052L10.6253 15.6ZM14.9837 15.6H12.9812L14.6301 8.64861H16.6326L14.9837 15.6ZM19.2233 10.5744C19.2822 10.2 19.6358 9.98588 20.0483 9.98588C20.6965 9.93213 21.4026 10.0396 21.9918 10.3065L22.3454 8.80986C21.7561 8.59578 21.1079 8.48828 20.5197 8.48828C18.5762 8.48828 17.1619 9.45115 17.1619 10.7875C17.1619 11.8041 18.1637 12.3379 18.8708 12.6595C19.6358 12.9801 19.9304 13.1942 19.8715 13.5149C19.8715 13.9958 19.2822 14.2099 18.694 14.2099C17.9869 14.2099 17.2798 14.0496 16.6326 13.7818L16.2791 15.2794C16.9862 15.5463 17.7512 15.6538 18.4583 15.6538C20.6375 15.7066 21.9918 14.7446 21.9918 13.3008C21.9918 11.4825 19.2233 11.376 19.2233 10.5744ZM28.9999 15.6L27.4099 8.64861H25.7021C25.3485 8.64861 24.995 8.86268 24.8771 9.18333L21.9329 15.6H23.9943L24.4057 14.5843H26.9385L27.1742 15.6H28.9999ZM25.9967 10.5206L26.5849 13.1405H24.936L25.9967 10.5206Z" fill="#172B85"/>
</svg>
